<?xml version="1.0" encoding="UTF-8"?>
<!DOCTYPE svg PUBLIC "-//W3C//DTD SVG 1.1//EN"
        "http://www.w3.org/Graphics/SVG/1.1/DTD/svg11.dtd">
<svg xmlns="http://www.w3.org/2000/svg" version="1.1" width="500px" height="500px"
     style="shape-rendering:geometricPrecision; text-rendering:geometricPrecision; image-rendering:optimizeQuality; fill-rule:evenodd; clip-rule:evenodd"
     xmlns:xlink="http://www.w3.org/1999/xlink">
    <g>
        <path style="opacity:1" fill="#2f5663"
              d="M 258.5,30.5 C 259.609,31.29 260.942,31.79 262.5,32C 258.722,33.1468 254.556,34.3134 250,35.5C 248.984,34.3659 248.317,34.6992 248,36.5C 247.667,36.1667 247.333,35.8333 247,35.5C 245.509,37.0037 243.676,37.8371 241.5,38C 245.747,39.4051 250.08,40.7384 254.5,42C 255.211,43.2547 256.044,44.4214 257,45.5C 259.248,45.1421 261.748,44.4755 264.5,43.5C 266.739,45.1205 268.573,44.7871 270,42.5C 271.826,44.0738 273.993,44.9071 276.5,45C 280.146,47.0623 280.312,49.229 277,51.5C 273.044,49.3556 268.878,49.0222 264.5,50.5C 268.804,51.8012 273.137,52.9678 277.5,54C 279.688,57.0218 282.355,59.5218 285.5,61.5C 285.833,61.1667 286.167,60.8333 286.5,60.5C 282.2,55.8658 282.534,51.6991 287.5,48C 291.465,46.5831 293.799,47.9164 294.5,52C 293.167,54.3333 293.167,56.6667 294.5,59C 291.972,59.6689 291.972,60.5022 294.5,61.5C 297.333,60.5693 299.666,61.4026 301.5,64C 300.314,66.4307 298.314,67.5973 295.5,67.5C 295.594,64.4594 294.094,62.7928 291,62.5C 288.79,65.2896 285.956,66.123 282.5,65C 279.235,60.701 274.902,58.5344 269.5,58.5C 269.649,57.448 269.483,56.448 269,55.5C 266.439,56.1121 263.606,56.2787 260.5,56C 259.289,54.8869 259.289,53.7202 260.5,52.5C 258.955,51.5481 257.288,51.2148 255.5,51.5C 255.5,52.5 255.5,53.5 255.5,54.5C 250.954,53.8112 246.787,52.1445 243,49.5C 239.427,51.1328 238.261,53.7995 239.5,57.5C 235.808,58.2525 232.142,59.0858 228.5,60C 227.748,60.6708 227.414,61.5041 227.5,62.5C 224.528,63.8108 221.694,65.4775 219,67.5C 218.098,67.2568 217.265,66.9234 216.5,66.5C 214.833,66.5 213.167,66.5 211.5,66.5C 211.516,62.7261 209.85,61.7261 206.5,63.5C 206.167,62.1667 205.833,60.8333 205.5,59.5C 206.021,57.0759 206.688,54.7426 207.5,52.5C 202.468,52.6677 202.301,51.6677 207,49.5C 207.765,47.9343 207.598,46.6009 206.5,45.5C 221.732,33.6874 239.065,28.6874 258.5,30.5 Z"/>
    </g>
    <g>
        <path style="opacity:1" fill="#305660"
              d="M 206.5,45.5 C 207.598,46.6009 207.765,47.9343 207,49.5C 202.301,51.6677 202.468,52.6677 207.5,52.5C 206.688,54.7426 206.021,57.0759 205.5,59.5C 205.833,60.8333 206.167,62.1667 206.5,63.5C 209.85,61.7261 211.516,62.7261 211.5,66.5C 213.167,66.5 214.833,66.5 216.5,66.5C 217.619,69.7443 216.285,71.411 212.5,71.5C 212.5,72.8333 212.5,74.1667 212.5,75.5C 211.5,75.5 210.5,75.5 209.5,75.5C 207.625,79.2664 206.291,83.2664 205.5,87.5C 203.895,89.2123 202.228,90.2123 200.5,90.5C 200.987,91.4461 201.32,92.4461 201.5,93.5C 199.861,101.077 199.195,108.743 199.5,116.5C 198.05,117.658 197.05,117.158 196.5,115C 196.833,114.667 197.167,114.333 197.5,114C 195.667,112.5 193.833,111 192,109.5C 191.5,111.333 190.333,112.5 188.5,113C 189.727,114.587 189.394,115.921 187.5,117C 188.167,117.333 188.833,117.667 189.5,118C 187.695,118.972 186.028,120.139 184.5,121.5C 183.416,120.335 182.583,119.002 182,117.5C 180.695,122.795 179.529,128.128 178.5,133.5C 176.581,129.143 175.581,124.477 175.5,119.5C 175.5,116.5 175.5,113.5 175.5,110.5C 174.209,110.263 173.209,110.596 172.5,111.5C 153.622,119.267 137.622,130.934 124.5,146.5C 123.214,144.123 121.548,141.956 119.5,140C 122.167,139 122.167,138 119.5,137C 119.833,136.667 120.167,136.333 120.5,136C 119.847,131.074 118.68,126.241 117,121.5C 115.56,123.046 113.727,123.879 111.5,124C 110.075,125.714 110.408,127.047 112.5,128C 111.833,128.333 111.167,128.667 110.5,129C 112.244,131.963 112.744,135.129 112,138.5C 111.333,137.167 110.667,137.167 110,138.5C 109.257,134.264 106.757,132.597 102.5,133.5C 102.689,137.741 101.022,140.074 97.5,140.5C 98.3256,141.451 98.4922,142.451 98,143.5C 97.6667,143.167 97.3333,142.833 97,142.5C 96.3155,146.049 94.4821,147.716 91.5,147.5C 104.264,123.569 122.598,105.069 146.5,92C 156.692,86.936 167.359,83.2693 178.5,81C 184.162,66.1274 193.495,54.294 206.5,45.5 Z"/>
    </g>
    <g>
        <path style="opacity:1" fill="#ddc193"
              d="M 279.5,65.5 C 282.139,67.4728 284.473,69.8061 286.5,72.5C 271.708,61.0397 255.042,57.5397 236.5,62C 230.419,64.5391 224.419,67.3725 218.5,70.5C 224.098,65.5706 230.431,61.904 237.5,59.5C 252.245,56.6659 266.245,58.6659 279.5,65.5 Z"/>
    </g>
    <g>
        <path style="opacity:1" fill="#fac17d"
              d="M 286.5,72.5 C 290.217,73.9198 292.55,76.5865 293.5,80.5C 295.089,85.6851 297.256,90.6851 300,95.5C 300.667,102.5 300.667,109.5 300,116.5C 298.711,119.351 298.211,122.351 298.5,125.5C 298.5,126.167 298.5,126.833 298.5,127.5C 297.504,127.414 296.671,127.748 296,128.5C 294.63,131.991 293.13,135.325 291.5,138.5C 290.5,138.5 289.5,138.5 288.5,138.5C 288.5,139.833 288.5,141.167 288.5,142.5C 288.5,143.167 288.167,143.5 287.5,143.5C 284.753,143.187 282.086,143.52 279.5,144.5C 279.833,145.167 280.167,145.833 280.5,146.5C 276.637,148.262 273.637,150.929 271.5,154.5C 265.274,154.921 259.107,155.588 253,156.5C 247.164,156.129 241.331,155.796 235.5,155.5C 229.345,151.586 223.345,147.42 217.5,143C 214.29,137.113 210.29,131.947 205.5,127.5C 205.5,126.833 205.5,126.167 205.5,125.5C 203.723,115.571 203.223,105.571 204,95.5C 206.076,92.1069 207.242,88.4402 207.5,84.5C 210.435,79.235 214.101,74.5683 218.5,70.5C 224.419,67.3725 230.419,64.5391 236.5,62C 255.042,57.5397 271.708,61.0397 286.5,72.5 Z"/>
    </g>
    <g>
        <path style="opacity:1" fill="#325962"
              d="M 258.5,30.5 C 289.559,34.5505 311.559,50.8839 324.5,79.5C 330.399,81.1313 336.066,83.1313 341.5,85.5C 334.236,86.212 327.07,85.212 320,82.5C 319.517,81.552 319.351,80.552 319.5,79.5C 318.448,79.6495 317.448,79.4828 316.5,79C 319.584,74.9362 319.084,71.4362 315,68.5C 314.667,68.8333 314.333,69.1667 314,69.5C 311.923,64.4989 310.423,64.4989 309.5,69.5C 306.365,69.4518 304.698,67.7852 304.5,64.5C 303.142,66.8607 301.642,69.1941 300,71.5C 299.581,70.3279 298.915,69.3279 298,68.5C 295.393,69.1233 292.893,69.79 290.5,70.5C 288.41,70.5499 287.077,69.5499 286.5,67.5C 284.223,66.5793 281.89,65.9126 279.5,65.5C 266.245,58.6659 252.245,56.6659 237.5,59.5C 233.843,59.506 230.51,60.506 227.5,62.5C 227.414,61.5041 227.748,60.6708 228.5,60C 232.142,59.0858 235.808,58.2525 239.5,57.5C 238.261,53.7995 239.427,51.1328 243,49.5C 246.787,52.1445 250.954,53.8112 255.5,54.5C 255.5,53.5 255.5,52.5 255.5,51.5C 257.288,51.2148 258.955,51.5481 260.5,52.5C 259.289,53.7202 259.289,54.8869 260.5,56C 263.606,56.2787 266.439,56.1121 269,55.5C 269.483,56.448 269.649,57.448 269.5,58.5C 274.902,58.5344 279.235,60.701 282.5,65C 285.956,66.123 288.79,65.2896 291,62.5C 294.094,62.7928 295.594,64.4594 295.5,67.5C 298.314,67.5973 300.314,66.4307 301.5,64C 299.666,61.4026 297.333,60.5693 294.5,61.5C 291.972,60.5022 291.972,59.6689 294.5,59C 293.167,56.6667 293.167,54.3333 294.5,52C 293.799,47.9164 291.465,46.5831 287.5,48C 282.534,51.6991 282.2,55.8658 286.5,60.5C 286.167,60.8333 285.833,61.1667 285.5,61.5C 282.355,59.5218 279.688,57.0218 277.5,54C 273.137,52.9678 268.804,51.8012 264.5,50.5C 268.878,49.0222 273.044,49.3556 277,51.5C 280.312,49.229 280.146,47.0623 276.5,45C 273.993,44.9071 271.826,44.0738 270,42.5C 268.573,44.7871 266.739,45.1205 264.5,43.5C 261.748,44.4755 259.248,45.1421 257,45.5C 256.044,44.4214 255.211,43.2547 254.5,42C 250.08,40.7384 245.747,39.4051 241.5,38C 243.676,37.8371 245.509,37.0037 247,35.5C 247.333,35.8333 247.667,36.1667 248,36.5C 248.317,34.6992 248.984,34.3659 250,35.5C 254.556,34.3134 258.722,33.1468 262.5,32C 260.942,31.79 259.609,31.29 258.5,30.5 Z"/>
    </g>
    <g>
        <path style="opacity:1" fill="#4a544d"
              d="M 237.5,59.5 C 230.431,61.904 224.098,65.5706 218.5,70.5C 214.101,74.5683 210.435,79.235 207.5,84.5C 206.833,85.5 206.167,86.5 205.5,87.5C 206.291,83.2664 207.625,79.2664 209.5,75.5C 210.5,75.5 211.5,75.5 212.5,75.5C 212.5,74.1667 212.5,72.8333 212.5,71.5C 216.285,71.411 217.619,69.7443 216.5,66.5C 217.265,66.9234 218.098,67.2568 219,67.5C 221.694,65.4775 224.528,63.8108 227.5,62.5C 230.51,60.506 233.843,59.506 237.5,59.5 Z"/>
    </g>
    <g>
        <path style="opacity:1" fill="#3b5657"
              d="M 279.5,65.5 C 281.89,65.9126 284.223,66.5793 286.5,67.5C 287.077,69.5499 288.41,70.5499 290.5,70.5C 292.138,72.9675 294.305,74.9675 297,76.5C 299.565,75.6777 301.732,76.511 303.5,79C 303.554,80.3509 303.054,81.5176 302,82.5C 300.662,81.4939 299.329,80.4939 298,79.5C 297.833,80.3333 297.667,81.1667 297.5,82C 298.967,85.4824 300.467,88.9824 302,92.5C 302.497,94.8098 302.663,97.1432 302.5,99.5C 301.229,92.3547 298.229,86.0214 293.5,80.5C 292.55,76.5865 290.217,73.9198 286.5,72.5C 284.473,69.8061 282.139,67.4728 279.5,65.5 Z"/>
    </g>
    <g>
        <path style="opacity:1" fill="#2d5865"
              d="M 341.5,85.5 C 367.577,95.9095 388.244,112.91 403.5,136.5C 401.702,137.463 400.368,136.796 399.5,134.5C 397.282,135.188 395.782,134.188 395,131.5C 394.586,131.957 394.086,132.291 393.5,132.5C 390.705,130.485 390.039,127.985 391.5,125C 383.985,125.355 382.985,128.022 388.5,133C 387.776,135.67 386.109,137.17 383.5,137.5C 383.719,138.675 383.386,139.675 382.5,140.5C 381.355,139.224 381.355,137.891 382.5,136.5C 381.369,135.396 380.535,135.729 380,137.5C 379.289,135.633 379.789,134.133 381.5,133C 379.875,132.147 379.542,131.147 380.5,130C 378.833,129.333 377.167,129.333 375.5,130C 376.833,130.667 376.833,131.333 375.5,132C 377.932,133.087 377.598,133.587 374.5,133.5C 374.5,136.5 374.5,139.5 374.5,142.5C 375.822,142.67 376.989,142.337 378,141.5C 377.866,143.189 377.366,144.856 376.5,146.5C 364.67,130.35 349.337,118.684 330.5,111.5C 329.32,118.564 327.82,125.564 326,132.5C 324.249,137.674 321.749,142.341 318.5,146.5C 316.795,145.912 315.128,145.579 313.5,145.5C 312.933,148.212 312.599,150.879 312.5,153.5C 311.575,152.359 310.741,152.359 310,153.5C 309.51,152.207 309.343,150.873 309.5,149.5C 306.538,149.117 305.538,150.117 306.5,152.5C 304.314,154.559 304.148,156.892 306,159.5C 309.117,160.963 312.283,161.296 315.5,160.5C 314.494,159.604 314.494,158.938 315.5,158.5C 319.664,163.646 324.33,167.313 329.5,169.5C 329.192,170.308 328.692,170.975 328,171.5C 326.667,170.833 325.333,170.167 324,169.5C 323.529,171.246 322.862,172.913 322,174.5C 320.844,173.007 320.01,173.174 319.5,175C 320.187,176.162 320.353,177.328 320,178.5C 319.586,178.043 319.086,177.709 318.5,177.5C 312.287,177.943 311.953,179.443 317.5,182C 316.069,183.562 314.569,185.062 313,186.5C 311.319,184.452 309.819,182.285 308.5,180C 306.866,179.506 305.199,179.34 303.5,179.5C 303.662,177.473 303.495,175.473 303,173.5C 302.259,172.359 301.425,172.359 300.5,173.5C 299.646,172.478 298.646,171.645 297.5,171C 298.167,170.667 298.833,170.333 299.5,170C 298.069,169.535 296.903,168.701 296,167.5C 293.755,168.797 291.088,170.131 288,171.5C 286.559,173.305 286.392,175.305 287.5,177.5C 285.254,176.786 282.921,176.952 280.5,178C 275.885,181.908 270.552,183.408 264.5,182.5C 262.413,181.449 260.246,181.449 258,182.5C 253.616,180.946 249.116,179.779 244.5,179C 246.433,178.749 248.266,178.249 250,177.5C 250.333,177.833 250.667,178.167 251,178.5C 257.085,177.688 263.252,177.188 269.5,177C 270.996,174.799 271.996,172.299 272.5,169.5C 273.5,168.5 274.5,167.5 275.5,166.5C 274.226,164.15 272.893,164.317 271.5,167C 266.5,167.667 261.5,167.667 256.5,167C 255.054,164.306 253.054,163.473 250.5,164.5C 247.526,162.922 244.526,161.589 241.5,160.5C 249.174,160.666 256.841,160.5 264.5,160C 267.053,159.239 269.553,158.406 272,157.5C 272.414,157.957 272.914,158.291 273.5,158.5C 274.833,157.5 276.167,156.5 277.5,155.5C 279.173,157.086 281.173,157.753 283.5,157.5C 283.5,156.167 283.5,154.833 283.5,153.5C 281.058,153.881 280.391,153.214 281.5,151.5C 283.672,150.795 285.672,149.795 287.5,148.5C 288.833,149.167 290.167,149.833 291.5,150.5C 291.911,149.738 292.077,148.738 292,147.5C 292.718,148.451 293.551,148.617 294.5,148C 292.393,146.736 291.393,144.903 291.5,142.5C 296.342,136.131 300.175,129.131 303,121.5C 303.822,113.988 303.655,106.655 302.5,99.5C 302.663,97.1432 302.497,94.8098 302,92.5C 300.467,88.9824 298.967,85.4824 297.5,82C 297.667,81.1667 297.833,80.3333 298,79.5C 299.329,80.4939 300.662,81.4939 302,82.5C 303.054,81.5176 303.554,80.3509 303.5,79C 301.732,76.511 299.565,75.6777 297,76.5C 294.305,74.9675 292.138,72.9675 290.5,70.5C 292.893,69.79 295.393,69.1233 298,68.5C 298.915,69.3279 299.581,70.3279 300,71.5C 301.642,69.1941 303.142,66.8607 304.5,64.5C 304.698,67.7852 306.365,69.4518 309.5,69.5C 310.423,64.4989 311.923,64.4989 314,69.5C 314.333,69.1667 314.667,68.8333 315,68.5C 319.084,71.4362 319.584,74.9362 316.5,79C 317.448,79.4828 318.448,79.6495 319.5,79.5C 319.351,80.552 319.517,81.552 320,82.5C 327.07,85.212 334.236,86.212 341.5,85.5 Z"/>
    </g>
    <g>
        <path style="opacity:1" fill="#d4be96"
              d="M 207.5,84.5 C 207.242,88.4402 206.076,92.1069 204,95.5C 203.223,105.571 203.723,115.571 205.5,125.5C 200.234,112.941 200.234,100.275 205.5,87.5C 206.167,86.5 206.833,85.5 207.5,84.5 Z"/>
    </g>
    <g>
        <path style="opacity:1" fill="#dfc399"
              d="M 293.5,80.5 C 298.229,86.0214 301.229,92.3547 302.5,99.5C 302.666,104.511 302.499,109.511 302,114.5C 301.584,118.529 300.417,122.196 298.5,125.5C 298.211,122.351 298.711,119.351 300,116.5C 300.667,109.5 300.667,102.5 300,95.5C 297.256,90.6851 295.089,85.6851 293.5,80.5 Z"/>
    </g>
    <g>
        <path style="opacity:0.086" fill="#a1b1b3"
              d="M 172.5,111.5 C 173.209,110.596 174.209,110.263 175.5,110.5C 175.5,113.5 175.5,116.5 175.5,119.5C 175.098,116.523 174.098,113.857 172.5,111.5 Z"/>
    </g>
    <g>
        <path style="opacity:1" fill="#3a5553"
              d="M 205.5,87.5 C 200.234,100.275 200.234,112.941 205.5,125.5C 205.5,126.167 205.5,126.833 205.5,127.5C 209.986,137.983 216.986,146.316 226.5,152.5C 220.337,149.517 214.837,145.517 210,140.5C 209.51,139.207 209.343,137.873 209.5,136.5C 206.478,136.572 204.312,135.238 203,132.5C 203.012,129.349 202.012,126.682 200,124.5C 199.311,125.357 198.478,126.023 197.5,126.5C 196.049,124.441 194.049,123.441 191.5,123.5C 191.5,122.5 191.5,121.5 191.5,120.5C 193.792,120.244 195.959,120.577 198,121.5C 199.009,119.975 199.509,118.308 199.5,116.5C 199.195,108.743 199.861,101.077 201.5,93.5C 201.32,92.4461 200.987,91.4461 200.5,90.5C 202.228,90.2123 203.895,89.2123 205.5,87.5 Z"/>
    </g>
    <g>
        <path style="opacity:1" fill="#2e5863"
              d="M 199.5,116.5 C 199.509,118.308 199.009,119.975 198,121.5C 195.959,120.577 193.792,120.244 191.5,120.5C 191.5,121.5 191.5,122.5 191.5,123.5C 194.049,123.441 196.049,124.441 197.5,126.5C 198.478,126.023 199.311,125.357 200,124.5C 202.012,126.682 203.012,129.349 203,132.5C 204.312,135.238 206.478,136.572 209.5,136.5C 209.343,137.873 209.51,139.207 210,140.5C 214.837,145.517 220.337,149.517 226.5,152.5C 226.414,153.496 226.748,154.329 227.5,155C 232.341,156.595 237.008,158.428 241.5,160.5C 244.526,161.589 247.526,162.922 250.5,164.5C 253.054,163.473 255.054,164.306 256.5,167C 261.5,167.667 266.5,167.667 271.5,167C 272.893,164.317 274.226,164.15 275.5,166.5C 274.5,167.5 273.5,168.5 272.5,169.5C 271.996,172.299 270.996,174.799 269.5,177C 263.252,177.188 257.085,177.688 251,178.5C 250.667,178.167 250.333,177.833 250,177.5C 248.266,178.249 246.433,178.749 244.5,179C 249.116,179.779 253.616,180.946 258,182.5C 260.246,181.449 262.413,181.449 264.5,182.5C 265.952,183.302 267.618,183.802 269.5,184C 268.263,184.232 267.263,184.732 266.5,185.5C 244.585,189.284 224.418,184.95 206,172.5C 193.541,183.958 181.374,195.791 169.5,208C 178.696,220.604 183.03,234.771 182.5,250.5C 182.975,265.62 178.975,279.286 170.5,291.5C 167.835,289.409 164.835,287.576 161.5,286C 162.624,285.751 163.624,285.251 164.5,284.5C 165.091,281.075 166.425,278.075 168.5,275.5C 168.402,273.063 167.402,271.063 165.5,269.5C 166.611,268.389 167.278,267.055 167.5,265.5C 167.169,262.326 167.169,258.992 167.5,255.5C 169.833,255.5 172.167,255.5 174.5,255.5C 174.5,252.833 174.5,250.167 174.5,247.5C 173.325,247.719 172.325,247.386 171.5,246.5C 172.689,245.571 174.022,245.238 175.5,245.5C 175.838,242.843 175.171,240.51 173.5,238.5C 175.982,235.297 174.982,233.464 170.5,233C 169.809,231.933 169.309,230.766 169,229.5C 167.302,230.733 165.302,231.4 163,231.5C 161.167,231.167 159.333,230.833 157.5,230.5C 159.689,225.324 157.689,222.991 151.5,223.5C 151.5,225.5 151.5,227.5 151.5,229.5C 145.935,218.601 137.935,209.934 127.5,203.5C 128.609,202.71 129.942,202.21 131.5,202C 132.191,200.933 132.691,199.766 133,198.5C 134.716,199.552 135.716,198.886 136,196.5C 137.747,197.927 138.914,199.427 139.5,201C 138.062,201.219 136.729,201.719 135.5,202.5C 135.132,204.506 135.632,206.506 137,208.5C 138.738,211.232 141.238,212.732 144.5,213C 145.826,216.491 147.993,219.324 151,221.5C 152.023,220.4 152.523,219.067 152.5,217.5C 151.932,214.527 150.932,211.693 149.5,209C 149.645,208.228 149.978,207.561 150.5,207C 152.441,206.257 154.274,206.424 156,207.5C 157.022,219.912 158.689,220.245 161,208.5C 164.41,220.561 165.743,220.227 165,207.5C 163.212,205.996 162.712,204.329 163.5,202.5C 162.696,201.059 162.029,199.559 161.5,198C 161.905,197.055 162.572,196.388 163.5,196C 162.422,195.326 161.755,194.326 161.5,193C 162.489,189.79 163.156,186.79 163.5,184C 162.931,181.568 161.931,179.401 160.5,177.5C 168.492,169.008 176.658,160.675 185,152.5C 185.667,151.167 185.667,149.833 185,148.5C 182.271,143.712 180.104,138.712 178.5,133.5C 179.529,128.128 180.695,122.795 182,117.5C 182.583,119.002 183.416,120.335 184.5,121.5C 186.028,120.139 187.695,118.972 189.5,118C 188.833,117.667 188.167,117.333 187.5,117C 189.394,115.921 189.727,114.587 188.5,113C 190.333,112.5 191.5,111.333 192,109.5C 193.833,111 195.667,112.5 197.5,114C 197.167,114.333 196.833,114.667 196.5,115C 197.05,117.158 198.05,117.658 199.5,116.5 Z"/>
    </g>
    <g>
        <path style="opacity:1" fill="#455047"
              d="M 302.5,99.5 C 303.655,106.655 303.822,113.988 303,121.5C 300.175,129.131 296.342,136.131 291.5,142.5C 290.395,143.6 289.062,144.267 287.5,144.5C 287.5,144.167 287.5,143.833 287.5,143.5C 288.167,143.5 288.5,143.167 288.5,142.5C 293.06,138.398 296.393,133.398 298.5,127.5C 298.5,126.833 298.5,126.167 298.5,125.5C 300.417,122.196 301.584,118.529 302,114.5C 302.499,109.511 302.666,104.511 302.5,99.5 Z"/>
    </g>
    <g>
        <path style="opacity:1" fill="#e1c297"
              d="M 298.5,127.5 C 296.393,133.398 293.06,138.398 288.5,142.5C 288.5,141.167 288.5,139.833 288.5,138.5C 289.5,138.5 290.5,138.5 291.5,138.5C 293.13,135.325 294.63,131.991 296,128.5C 296.671,127.748 297.504,127.414 298.5,127.5 Z"/>
    </g>
    <g>
        <path style="opacity:1" fill="#2c5663"
              d="M 124.5,146.5 C 118.882,154.131 114.549,162.464 111.5,171.5C 126.216,172.46 139.383,177.46 151,186.5C 154.161,183.53 157.328,180.53 160.5,177.5C 161.931,179.401 162.931,181.568 163.5,184C 163.156,186.79 162.489,189.79 161.5,193C 161.755,194.326 162.422,195.326 163.5,196C 162.572,196.388 161.905,197.055 161.5,198C 162.029,199.559 162.696,201.059 163.5,202.5C 162.712,204.329 163.212,205.996 165,207.5C 165.743,220.227 164.41,220.561 161,208.5C 158.689,220.245 157.022,219.912 156,207.5C 154.274,206.424 152.441,206.257 150.5,207C 149.978,207.561 149.645,208.228 149.5,209C 150.932,211.693 151.932,214.527 152.5,217.5C 152.523,219.067 152.023,220.4 151,221.5C 147.993,219.324 145.826,216.491 144.5,213C 141.238,212.732 138.738,211.232 137,208.5C 135.632,206.506 135.132,204.506 135.5,202.5C 136.729,201.719 138.062,201.219 139.5,201C 138.914,199.427 137.747,197.927 136,196.5C 135.716,198.886 134.716,199.552 133,198.5C 132.691,199.766 132.191,200.933 131.5,202C 129.942,202.21 128.609,202.71 127.5,203.5C 123.976,202.035 120.309,201.035 116.5,200.5C 115.391,199.71 114.058,199.21 112.5,199C 107.511,198.501 102.511,198.334 97.5,198.5C 98.6085,197.71 99.9419,197.21 101.5,197C 92.9159,195.046 85.0826,196.879 78,202.5C 77.6667,201.833 77.3333,201.167 77,200.5C 74.6709,200.398 72.1709,200.731 69.5,201.5C 69.7242,197.046 69.7242,192.712 69.5,188.5C 69.8333,188.167 70.1667,187.833 70.5,187.5C 72.4666,188.953 74.6332,189.953 77,190.5C 78.4866,189.845 79.6533,188.845 80.5,187.5C 79.7838,185.092 78.4505,183.092 76.5,181.5C 75.9215,184.116 74.4215,184.116 72,181.5C 71.6667,181.833 71.3333,182.167 71,182.5C 72.1176,180.363 73.2843,178.03 74.5,175.5C 75.391,174.89 76.391,174.557 77.5,174.5C 81.9083,174.938 83.5749,172.938 82.5,168.5C 84.1561,160.862 87.1561,153.862 91.5,147.5C 94.4821,147.716 96.3155,146.049 97,142.5C 97.3333,142.833 97.6667,143.167 98,143.5C 98.4922,142.451 98.3256,141.451 97.5,140.5C 101.022,140.074 102.689,137.741 102.5,133.5C 106.757,132.597 109.257,134.264 110,138.5C 110.667,137.167 111.333,137.167 112,138.5C 112.744,135.129 112.244,131.963 110.5,129C 111.167,128.667 111.833,128.333 112.5,128C 110.408,127.047 110.075,125.714 111.5,124C 113.727,123.879 115.56,123.046 117,121.5C 118.68,126.241 119.847,131.074 120.5,136C 120.167,136.333 119.833,136.667 119.5,137C 122.167,138 122.167,139 119.5,140C 121.548,141.956 123.214,144.123 124.5,146.5 Z"/>
    </g>
    <g>
        <path style="opacity:1" fill="#dbc497"
              d="M 205.5,127.5 C 210.29,131.947 214.29,137.113 217.5,143C 223.345,147.42 229.345,151.586 235.5,155.5C 232.426,154.698 229.426,153.698 226.5,152.5C 216.986,146.316 209.986,137.983 205.5,127.5 Z"/>
    </g>
    <g>
        <path style="opacity:1" fill="#e9bf8b"
              d="M 287.5,143.5 C 287.5,143.833 287.5,144.167 287.5,144.5C 282.919,149.09 277.586,152.423 271.5,154.5C 273.637,150.929 276.637,148.262 280.5,146.5C 280.167,145.833 279.833,145.167 279.5,144.5C 282.086,143.52 284.753,143.187 287.5,143.5 Z"/>
    </g>
    <g>
        <path style="opacity:1" fill="#2c5865"
              d="M 403.5,136.5 C 410.547,146.783 415.38,158.117 418,170.5C 465.601,190.581 483.601,225.915 472,276.5C 470.004,282.701 467.171,288.367 463.5,293.5C 461.983,293.511 460.816,294.177 460,295.5C 459.586,295.043 459.086,294.709 458.5,294.5C 455.892,300.267 452.059,304.267 447,306.5C 444.542,303.253 441.542,302.92 438,305.5C 437.996,303.632 438.496,301.798 439.5,300C 439.387,298.72 438.72,297.887 437.5,297.5C 436.5,299 435.5,300.5 434.5,302C 435.838,304.724 434.838,305.891 431.5,305.5C 430.694,302.451 429.694,299.451 428.5,296.5C 430.631,294.605 432.964,292.938 435.5,291.5C 437.425,287.249 440.092,283.583 443.5,280.5C 446.255,272.993 448.421,265.327 450,257.5C 450.667,251.833 450.667,246.167 450,240.5C 449.617,239.944 449.117,239.611 448.5,239.5C 447.297,235.89 446.297,232.223 445.5,228.5C 445.785,226.712 445.452,225.045 444.5,223.5C 441.893,219.541 439.227,215.541 436.5,211.5C 433.976,209.813 431.31,208.48 428.5,207.5C 427.833,207.5 427.167,207.5 426.5,207.5C 425.167,206.167 423.833,204.833 422.5,203.5C 422.586,202.504 422.252,201.671 421.5,201C 410.591,196.981 399.258,195.481 387.5,196.5C 385.692,195.606 383.858,194.606 382,193.5C 381.333,194.833 380.667,196.167 380,197.5C 377.21,198.132 374.377,198.298 371.5,198C 369.718,198.814 368.218,199.981 367,201.5C 366.418,198.332 365.418,197.999 364,200.5C 363.342,198.892 363.842,197.725 365.5,197C 364.284,195.26 362.618,194.26 360.5,194C 361.448,193.517 362.448,193.351 363.5,193.5C 364.375,187.071 366.041,186.904 368.5,193C 368.355,193.772 368.022,194.439 367.5,195C 371.235,195.287 374.735,194.453 378,192.5C 378.309,190.609 377.475,189.275 375.5,188.5C 375,188.167 374.5,187.833 374,187.5C 372.989,187.892 372.489,188.559 372.5,189.5C 365.407,185.27 365.907,180.937 374,176.5C 377.035,174.958 380.202,174.458 383.5,175C 381.018,176.594 380.852,178.428 383,180.5C 384.812,178.448 386.145,176.115 387,173.5C 388.927,176.813 391.093,176.646 393.5,173C 391.321,172.558 390.655,171.558 391.5,170C 389.638,166.736 388.305,163.236 387.5,159.5C 388.873,159.343 390.207,159.51 391.5,160C 394.717,167.268 395.883,167.101 395,159.5C 392.205,157.415 392.372,155.249 395.5,153C 394.034,152.365 392.7,151.531 391.5,150.5C 391.306,152.04 390.473,153.706 389,155.5C 387.684,152.972 386.517,152.972 385.5,155.5C 384.543,152.72 383.376,150.053 382,147.5C 381.259,146.359 380.425,146.359 379.5,147.5C 378.787,145.565 377.787,145.232 376.5,146.5C 377.366,144.856 377.866,143.189 378,141.5C 376.989,142.337 375.822,142.67 374.5,142.5C 374.5,139.5 374.5,136.5 374.5,133.5C 377.598,133.587 377.932,133.087 375.5,132C 376.833,131.333 376.833,130.667 375.5,130C 377.167,129.333 378.833,129.333 380.5,130C 379.542,131.147 379.875,132.147 381.5,133C 379.789,134.133 379.289,135.633 380,137.5C 380.535,135.729 381.369,135.396 382.5,136.5C 381.355,137.891 381.355,139.224 382.5,140.5C 383.386,139.675 383.719,138.675 383.5,137.5C 386.109,137.17 387.776,135.67 388.5,133C 382.985,128.022 383.985,125.355 391.5,125C 390.039,127.985 390.705,130.485 393.5,132.5C 394.086,132.291 394.586,131.957 395,131.5C 395.782,134.188 397.282,135.188 399.5,134.5C 400.368,136.796 401.702,137.463 403.5,136.5 Z"/>
    </g>
    <g>
        <path style="opacity:1" fill="#375254"
              d="M 291.5,142.5 C 291.393,144.903 292.393,146.736 294.5,148C 293.551,148.617 292.718,148.451 292,147.5C 292.077,148.738 291.911,149.738 291.5,150.5C 290.167,149.833 288.833,149.167 287.5,148.5C 285.672,149.795 283.672,150.795 281.5,151.5C 280.391,153.214 281.058,153.881 283.5,153.5C 283.5,154.833 283.5,156.167 283.5,157.5C 281.173,157.753 279.173,157.086 277.5,155.5C 276.167,156.5 274.833,157.5 273.5,158.5C 272.914,158.291 272.414,157.957 272,157.5C 269.553,158.406 267.053,159.239 264.5,160C 256.841,160.5 249.174,160.666 241.5,160.5C 237.008,158.428 232.341,156.595 227.5,155C 226.748,154.329 226.414,153.496 226.5,152.5C 229.426,153.698 232.426,154.698 235.5,155.5C 237.476,157.011 239.809,157.844 242.5,158C 248.5,158.667 254.5,158.667 260.5,158C 264.491,157.502 268.158,156.335 271.5,154.5C 277.586,152.423 282.919,149.09 287.5,144.5C 289.062,144.267 290.395,143.6 291.5,142.5 Z"/>
    </g>
    <g>
        <path style="opacity:1" fill="#e2c293"
              d="M 271.5,154.5 C 268.158,156.335 264.491,157.502 260.5,158C 254.5,158.667 248.5,158.667 242.5,158C 239.809,157.844 237.476,157.011 235.5,155.5C 241.331,155.796 247.164,156.129 253,156.5C 259.107,155.588 265.274,154.921 271.5,154.5 Z"/>
    </g>
    <g>
        <path style="opacity:1" fill="#305963"
              d="M 318.5,146.5 C 317.589,148.951 316.756,151.285 316,153.5C 327,164.5 338,175.5 349,186.5C 360.651,177.427 373.818,171.76 388.5,169.5C 385.345,161.358 381.345,153.691 376.5,146.5C 377.787,145.232 378.787,145.565 379.5,147.5C 380.425,146.359 381.259,146.359 382,147.5C 383.376,150.053 384.543,152.72 385.5,155.5C 386.517,152.972 387.684,152.972 389,155.5C 390.473,153.706 391.306,152.04 391.5,150.5C 392.7,151.531 394.034,152.365 395.5,153C 392.372,155.249 392.205,157.415 395,159.5C 395.883,167.101 394.717,167.268 391.5,160C 390.207,159.51 388.873,159.343 387.5,159.5C 388.305,163.236 389.638,166.736 391.5,170C 390.655,171.558 391.321,172.558 393.5,173C 391.093,176.646 388.927,176.813 387,173.5C 386.145,176.115 384.812,178.448 383,180.5C 380.852,178.428 381.018,176.594 383.5,175C 380.202,174.458 377.035,174.958 374,176.5C 365.907,180.937 365.407,185.27 372.5,189.5C 372.489,188.559 372.989,187.892 374,187.5C 374.5,187.833 375,188.167 375.5,188.5C 377.475,189.275 378.309,190.609 378,192.5C 374.735,194.453 371.235,195.287 367.5,195C 368.022,194.439 368.355,193.772 368.5,193C 366.041,186.904 364.375,187.071 363.5,193.5C 362.448,193.351 361.448,193.517 360.5,194C 362.618,194.26 364.284,195.26 365.5,197C 363.842,197.725 363.342,198.892 364,200.5C 365.418,197.999 366.418,198.332 367,201.5C 368.218,199.981 369.718,198.814 371.5,198C 374.377,198.298 377.21,198.132 380,197.5C 380.667,196.167 381.333,194.833 382,193.5C 383.858,194.606 385.692,195.606 387.5,196.5C 382.084,198.633 376.417,199.966 370.5,200.5C 370.5,201.5 370.5,202.5 370.5,203.5C 368.396,203.201 366.396,203.534 364.5,204.5C 364.709,205.086 365.043,205.586 365.5,206C 364.027,206.71 363.36,207.876 363.5,209.5C 360.204,213.298 356.704,216.964 353,220.5C 352.209,221.745 351.709,223.078 351.5,224.5C 349.744,226.249 348.411,228.249 347.5,230.5C 345.883,232.121 344.716,234.121 344,236.5C 343.214,246.207 343.547,255.874 345,265.5C 346.188,269.613 348.021,273.28 350.5,276.5C 352.945,282.958 357.279,287.958 363.5,291.5C 363.833,291.5 364.167,291.5 364.5,291.5C 364.281,292.675 364.614,293.675 365.5,294.5C 368.834,295.831 371.834,297.665 374.5,300C 385.78,304.795 397.447,305.795 409.5,303C 416.057,301.283 422.39,299.116 428.5,296.5C 429.694,299.451 430.694,302.451 431.5,305.5C 434.838,305.891 435.838,304.724 434.5,302C 435.5,300.5 436.5,299 437.5,297.5C 438.72,297.887 439.387,298.72 439.5,300C 438.496,301.798 437.996,303.632 438,305.5C 441.542,302.92 444.542,303.253 447,306.5C 452.059,304.267 455.892,300.267 458.5,294.5C 459.086,294.709 459.586,295.043 460,295.5C 460.816,294.177 461.983,293.511 463.5,293.5C 453.054,310.821 438.221,322.821 419,329.5C 412.587,350.344 402.087,368.678 387.5,384.5C 387.756,382.208 387.423,380.041 386.5,378C 387.029,375.571 388.363,373.738 390.5,372.5C 389.311,371.571 387.978,371.238 386.5,371.5C 385.833,367.5 387.5,365.833 391.5,366.5C 391.38,363.795 392.38,363.128 394.5,364.5C 396.578,362.014 399.245,361.014 402.5,361.5C 400.049,357.577 398.382,353.243 397.5,348.5C 397.792,345.705 399.125,343.538 401.5,342C 399.208,340.803 398.875,339.137 400.5,337C 397.261,333.916 395.594,330.082 395.5,325.5C 391.107,325.543 390.774,325.043 394.5,324C 392.866,323.506 391.199,323.34 389.5,323.5C 390.475,326.287 390.141,328.954 388.5,331.5C 374.557,328.63 361.391,323.297 349,315.5C 337.628,325.873 326.628,336.54 316,347.5C 315.421,348.928 315.588,350.262 316.5,351.5C 315.127,351.657 313.793,351.49 312.5,351C 313.554,349.612 313.72,348.112 313,346.5C 311.951,347.517 310.784,347.684 309.5,347C 312.167,346.333 312.167,345.667 309.5,345C 310.833,344.333 310.833,343.667 309.5,343C 311.863,342.411 312.863,340.911 312.5,338.5C 315.999,338.741 316.332,337.908 313.5,336C 314.991,333.282 316.324,330.449 317.5,327.5C 317.023,326.522 316.357,325.689 315.5,325C 318.334,322.816 319.668,323.316 319.5,326.5C 320.978,326.762 322.311,326.429 323.5,325.5C 322.876,323.246 321.543,321.579 319.5,320.5C 320.65,317.193 321.983,314.026 323.5,311C 321.213,308.157 321.879,305.823 325.5,304C 324.692,303.692 324.025,303.192 323.5,302.5C 326.213,301.095 328.879,299.595 331.5,298C 331.989,296.448 331.322,295.281 329.5,294.5C 317.713,273.824 314.546,251.824 320,228.5C 322.017,221.106 325.184,214.272 329.5,208C 318.137,196.971 307.137,185.637 296.5,174C 293.466,174.812 290.466,175.979 287.5,177.5C 286.392,175.305 286.559,173.305 288,171.5C 291.088,170.131 293.755,168.797 296,167.5C 296.903,168.701 298.069,169.535 299.5,170C 298.833,170.333 298.167,170.667 297.5,171C 298.646,171.645 299.646,172.478 300.5,173.5C 301.425,172.359 302.259,172.359 303,173.5C 303.495,175.473 303.662,177.473 303.5,179.5C 305.199,179.34 306.866,179.506 308.5,180C 309.819,182.285 311.319,184.452 313,186.5C 314.569,185.062 316.069,183.562 317.5,182C 311.953,179.443 312.287,177.943 318.5,177.5C 319.086,177.709 319.586,178.043 320,178.5C 320.353,177.328 320.187,176.162 319.5,175C 320.01,173.174 320.844,173.007 322,174.5C 322.862,172.913 323.529,171.246 324,169.5C 325.333,170.167 326.667,170.833 328,171.5C 328.692,170.975 329.192,170.308 329.5,169.5C 324.33,167.313 319.664,163.646 315.5,158.5C 314.494,158.938 314.494,159.604 315.5,160.5C 312.283,161.296 309.117,160.963 306,159.5C 304.148,156.892 304.314,154.559 306.5,152.5C 305.538,150.117 306.538,149.117 309.5,149.5C 309.343,150.873 309.51,152.207 310,153.5C 310.741,152.359 311.575,152.359 312.5,153.5C 312.599,150.879 312.933,148.212 313.5,145.5C 315.128,145.579 316.795,145.912 318.5,146.5 Z"/>
    </g>
    <g>
        <path style="opacity:0.702" fill="#7b9496"
              d="M 82.5,168.5 C 83.5749,172.938 81.9083,174.938 77.5,174.5C 78.531,173.751 79.6976,173.085 81,172.5C 81.21,170.942 81.71,169.609 82.5,168.5 Z"/>
    </g>
    <g>
        <path style="opacity:1" fill="#516c73"
              d="M 287.5,177.5 C 281.335,182.071 274.335,184.738 266.5,185.5C 267.263,184.732 268.263,184.232 269.5,184C 267.618,183.802 265.952,183.302 264.5,182.5C 270.552,183.408 275.885,181.908 280.5,178C 282.921,176.952 285.254,176.786 287.5,177.5 Z"/>
    </g>
    <g>
        <path style="opacity:1" fill="#c2e1d8"
              d="M 116.5,200.5 C 120.309,201.035 123.976,202.035 127.5,203.5C 137.935,209.934 145.935,218.601 151.5,229.5C 159.458,253.168 154.458,273.668 136.5,291C 135.473,291.513 134.473,292.013 133.5,292.5C 132.069,291.918 130.736,291.085 129.5,290C 129.833,289.667 130.167,289.333 130.5,289C 129.707,287.915 129.04,286.748 128.5,285.5C 131.052,282.681 132.719,279.348 133.5,275.5C 135.328,274.205 137.328,273.205 139.5,272.5C 137.257,271.526 134.924,271.192 132.5,271.5C 133.499,258.181 133.666,244.848 133,231.5C 132.563,228.228 130.73,226.561 127.5,226.5C 127.437,229.657 126.437,232.491 124.5,235C 122.066,235.333 121.066,234.166 121.5,231.5C 119.833,231.5 118.167,231.5 116.5,231.5C 116.707,234.127 115.54,235.793 113,236.5C 107.215,235.566 101.382,235.232 95.5,235.5C 95.5,236.833 95.5,238.167 95.5,239.5C 92.1667,239.5 88.8333,239.5 85.5,239.5C 85.5,240.833 85.5,242.167 85.5,243.5C 83.5,243.5 81.5,243.5 79.5,243.5C 79.5,241.5 79.5,239.5 79.5,237.5C 77.5714,237.769 75.9047,237.269 74.5,236C 70.5,235.333 66.5,235.333 62.5,236C 61.6634,237.011 61.33,238.178 61.5,239.5C 59.8762,239.64 58.7096,238.973 58,237.5C 56.8932,238.712 56.3932,238.379 56.5,236.5C 57.7017,234.608 59.035,232.774 60.5,231C 60.0426,230.586 59.7093,230.086 59.5,229.5C 61.4064,226.36 62.7397,223.027 63.5,219.5C 66.3183,217.545 69.3183,215.712 72.5,214C 73.9557,212.255 75.289,210.422 76.5,208.5C 77.6888,207.571 79.0222,207.238 80.5,207.5C 80.6932,203.551 81.1932,203.551 82,207.5C 82.3742,206.584 82.8742,205.75 83.5,205C 86.132,204.551 88.632,203.717 91,202.5C 92,202.833 93,203.167 94,203.5C 95.6595,202.171 97.4929,201.171 99.5,200.5C 105.136,200.789 110.802,200.789 116.5,200.5 Z"/>
    </g>
    <g>
        <path style="opacity:1" fill="#d8a790"
              d="M 422.5,203.5 C 423.833,204.833 425.167,206.167 426.5,207.5C 417.499,203.438 408.166,200.772 398.5,199.5C 389.709,200.423 381.042,202.09 372.5,204.5C 373.975,202.59 375.975,201.424 378.5,201C 393.509,195.834 408.175,196.667 422.5,203.5 Z"/>
    </g>
    <g>
        <path style="opacity:1" fill="#455254"
              d="M 387.5,196.5 C 399.258,195.481 410.591,196.981 421.5,201C 422.252,201.671 422.586,202.504 422.5,203.5C 408.175,196.667 393.509,195.834 378.5,201C 375.975,201.424 373.975,202.59 372.5,204.5C 370.326,204.75 368.659,205.75 367.5,207.5C 365.938,207.733 364.605,208.4 363.5,209.5C 363.36,207.876 364.027,206.71 365.5,206C 365.043,205.586 364.709,205.086 364.5,204.5C 366.396,203.534 368.396,203.201 370.5,203.5C 370.5,202.5 370.5,201.5 370.5,200.5C 376.417,199.966 382.084,198.633 387.5,196.5 Z"/>
    </g>
    <g>
        <path style="opacity:1" fill="#fda981"
              d="M 426.5,207.5 C 427.167,207.5 427.833,207.5 428.5,207.5C 432.565,211.559 436.232,215.893 439.5,220.5C 446.042,233.238 448.709,246.905 447.5,261.5C 447.472,264.916 446.472,267.916 444.5,270.5C 439.915,276.673 435.582,283.006 431.5,289.5C 430.022,289.238 428.689,289.571 427.5,290.5C 423.314,293.396 419.314,296.396 415.5,299.5C 414.833,299.5 414.167,299.5 413.5,299.5C 404.946,301.415 396.279,301.915 387.5,301C 383.144,299.816 378.811,298.649 374.5,297.5C 372.566,296.89 370.899,295.89 369.5,294.5C 363.745,289.073 358.079,283.74 352.5,278.5C 352.167,277.5 351.5,276.833 350.5,276.5C 349.962,274.883 349.629,273.216 349.5,271.5C 347.534,265.166 346.534,258.666 346.5,252C 347.462,245.217 348.295,238.384 349,231.5C 350.903,229.559 351.736,227.226 351.5,224.5C 356.805,218.86 362.139,213.193 367.5,207.5C 368.659,205.75 370.326,204.75 372.5,204.5C 381.042,202.09 389.709,200.423 398.5,199.5C 408.166,200.772 417.499,203.438 426.5,207.5 Z"/>
    </g>
    <g>
        <path style="opacity:1" fill="#305862"
              d="M 74.5,175.5 C 73.2843,178.03 72.1176,180.363 71,182.5C 71.3333,182.167 71.6667,181.833 72,181.5C 74.4215,184.116 75.9215,184.116 76.5,181.5C 78.4505,183.092 79.7838,185.092 80.5,187.5C 79.6533,188.845 78.4866,189.845 77,190.5C 74.6332,189.953 72.4666,188.953 70.5,187.5C 70.1667,187.833 69.8333,188.167 69.5,188.5C 69.7242,192.712 69.7242,197.046 69.5,201.5C 72.1709,200.731 74.6709,200.398 77,200.5C 77.3333,201.167 77.6667,201.833 78,202.5C 85.0826,196.879 92.9159,195.046 101.5,197C 99.9419,197.21 98.6085,197.71 97.5,198.5C 75.5489,201.943 61.0489,214.276 54,235.5C 52.7896,242.112 52.2896,248.778 52.5,255.5C 51.71,256.609 51.21,257.942 51,259.5C 50.1301,258.892 49.6301,258.059 49.5,257C 50.5969,251.54 50.7636,246.04 50,240.5C 49.3333,239.833 48.6667,239.167 48,238.5C 48.9205,243.898 46.7538,246.231 41.5,245.5C 40.5222,240.059 37.1888,238.059 31.5,239.5C 31.8076,237.076 31.4742,234.743 30.5,232.5C 29.6689,239.476 29.1689,246.476 29,253.5C 28.9977,256.051 28.1644,258.051 26.5,259.5C 23.3061,232.351 31.6395,209.185 51.5,190C 58.5349,184.125 66.2016,179.292 74.5,175.5 Z"/>
    </g>
    <g>
        <path style="opacity:1" fill="#ddab94"
              d="M 367.5,207.5 C 362.139,213.193 356.805,218.86 351.5,224.5C 351.709,223.078 352.209,221.745 353,220.5C 356.704,216.964 360.204,213.298 363.5,209.5C 364.605,208.4 365.938,207.733 367.5,207.5 Z"/>
    </g>
    <g>
        <path style="opacity:1" fill="#4d5656"
              d="M 428.5,207.5 C 431.31,208.48 433.976,209.813 436.5,211.5C 439.227,215.541 441.893,219.541 444.5,223.5C 445.452,225.045 445.785,226.712 445.5,228.5C 443.885,225.55 441.885,222.884 439.5,220.5C 436.232,215.893 432.565,211.559 428.5,207.5 Z"/>
    </g>
    <g>
        <path style="opacity:1" fill="#c3e2da"
              d="M 133.5,292.5 C 121.379,301.694 107.712,304.861 92.5,302C 88.211,301.183 84.211,299.683 80.5,297.5C 81.6576,296.05 81.1576,295.05 79,294.5C 77.5619,293.1 76.7286,291.433 76.5,289.5C 74.712,289.785 73.0453,289.452 71.5,288.5C 68.0148,283.849 64.3481,279.349 60.5,275C 60.8333,274.667 61.1667,274.333 61.5,274C 59.1671,272.757 58.5004,271.091 59.5,269C 57.8978,262.093 56.2311,255.259 54.5,248.5C 54.6667,246.5 54.8333,244.5 55,242.5C 55.9836,244.795 56.8169,244.461 57.5,241.5C 55.6212,239.93 55.2878,238.264 56.5,236.5C 56.3932,238.379 56.8932,238.712 58,237.5C 58.7096,238.973 59.8762,239.64 61.5,239.5C 61.33,238.178 61.6634,237.011 62.5,236C 66.5,235.333 70.5,235.333 74.5,236C 75.9047,237.269 77.5714,237.769 79.5,237.5C 79.5,239.5 79.5,241.5 79.5,243.5C 81.5,243.5 83.5,243.5 85.5,243.5C 85.5,242.167 85.5,240.833 85.5,239.5C 88.8333,239.5 92.1667,239.5 95.5,239.5C 95.5,238.167 95.5,236.833 95.5,235.5C 101.382,235.232 107.215,235.566 113,236.5C 115.54,235.793 116.707,234.127 116.5,231.5C 118.167,231.5 119.833,231.5 121.5,231.5C 121.066,234.166 122.066,235.333 124.5,235C 126.437,232.491 127.437,229.657 127.5,226.5C 130.73,226.561 132.563,228.228 133,231.5C 133.666,244.848 133.499,258.181 132.5,271.5C 134.924,271.192 137.257,271.526 139.5,272.5C 137.328,273.205 135.328,274.205 133.5,275.5C 132.719,279.348 131.052,282.681 128.5,285.5C 129.04,286.748 129.707,287.915 130.5,289C 130.167,289.333 129.833,289.667 129.5,290C 130.736,291.085 132.069,291.918 133.5,292.5 Z"/>
    </g>
    <g>
        <path style="opacity:1" fill="#bddedc"
              d="M 97.5,198.5 C 102.511,198.334 107.511,198.501 112.5,199C 114.058,199.21 115.391,199.71 116.5,200.5C 110.802,200.789 105.136,200.789 99.5,200.5C 97.4929,201.171 95.6595,202.171 94,203.5C 93,203.167 92,202.833 91,202.5C 88.632,203.717 86.132,204.551 83.5,205C 82.8742,205.75 82.3742,206.584 82,207.5C 81.1932,203.551 80.6932,203.551 80.5,207.5C 79.0222,207.238 77.6888,207.571 76.5,208.5C 75.289,210.422 73.9557,212.255 72.5,214C 69.3183,215.712 66.3183,217.545 63.5,219.5C 62.7397,223.027 61.4064,226.36 59.5,229.5C 59.7093,230.086 60.0426,230.586 60.5,231C 59.035,232.774 57.7017,234.608 56.5,236.5C 55.2878,238.264 55.6212,239.93 57.5,241.5C 56.8169,244.461 55.9836,244.795 55,242.5C 54.8333,244.5 54.6667,246.5 54.5,248.5C 56.2311,255.259 57.8978,262.093 59.5,269C 58.5004,271.091 59.1671,272.757 61.5,274C 61.1667,274.333 60.8333,274.667 60.5,275C 64.3481,279.349 68.0148,283.849 71.5,288.5C 73.0453,289.452 74.712,289.785 76.5,289.5C 76.7286,291.433 77.5619,293.1 79,294.5C 81.1576,295.05 81.6576,296.05 80.5,297.5C 64.3864,288.047 55.0531,274.047 52.5,255.5C 52.2896,248.778 52.7896,242.112 54,235.5C 61.0489,214.276 75.5489,201.943 97.5,198.5 Z"/>
    </g>
    <g>
        <path style="opacity:1" fill="#4e504a"
              d="M 347.5,230.5 C 344.122,241.316 343.622,252.316 346,263.5C 346.705,266.476 347.871,269.142 349.5,271.5C 349.629,273.216 349.962,274.883 350.5,276.5C 348.021,273.28 346.188,269.613 345,265.5C 343.547,255.874 343.214,246.207 344,236.5C 344.716,234.121 345.883,232.121 347.5,230.5 Z"/>
    </g>
    <g>
        <path style="opacity:1" fill="#ddab90"
              d="M 439.5,220.5 C 441.885,222.884 443.885,225.55 445.5,228.5C 446.297,232.223 447.297,235.89 448.5,239.5C 449.96,247.027 449.626,254.36 447.5,261.5C 448.709,246.905 446.042,233.238 439.5,220.5 Z"/>
    </g>
    <g>
        <path style="opacity:1" fill="#dfab91"
              d="M 351.5,224.5 C 351.736,227.226 350.903,229.559 349,231.5C 348.295,238.384 347.462,245.217 346.5,252C 346.534,258.666 347.534,265.166 349.5,271.5C 347.871,269.142 346.705,266.476 346,263.5C 343.622,252.316 344.122,241.316 347.5,230.5C 348.411,228.249 349.744,226.249 351.5,224.5 Z"/>
    </g>
    <g>
        <path style="opacity:1" fill="#daab91"
              d="M 444.5,270.5 C 442.154,278.182 437.82,284.515 431.5,289.5C 435.582,283.006 439.915,276.673 444.5,270.5 Z"/>
    </g>
    <g>
        <path style="opacity:1" fill="#d6aa93"
              d="M 352.5,278.5 C 358.079,283.74 363.745,289.073 369.5,294.5C 367.589,293.925 365.922,292.925 364.5,291.5C 364.167,291.5 363.833,291.5 363.5,291.5C 359.458,287.46 355.791,283.127 352.5,278.5 Z"/>
    </g>
    <g>
        <path style="opacity:1" fill="#464e4e"
              d="M 448.5,239.5 C 449.117,239.611 449.617,239.944 450,240.5C 450.667,246.167 450.667,251.833 450,257.5C 448.421,265.327 446.255,272.993 443.5,280.5C 440.092,283.583 437.425,287.249 435.5,291.5C 432.964,292.938 430.631,294.605 428.5,296.5C 422.39,299.116 416.057,301.283 409.5,303C 397.447,305.795 385.78,304.795 374.5,300C 371.834,297.665 368.834,295.831 365.5,294.5C 364.614,293.675 364.281,292.675 364.5,291.5C 365.922,292.925 367.589,293.925 369.5,294.5C 370.899,295.89 372.566,296.89 374.5,297.5C 377.715,299.856 381.381,301.356 385.5,302C 392.833,302.667 400.167,302.667 407.5,302C 409.723,301.434 411.723,300.6 413.5,299.5C 414.167,299.5 414.833,299.5 415.5,299.5C 421.847,297.667 427.18,294.333 431.5,289.5C 437.82,284.515 442.154,278.182 444.5,270.5C 446.472,267.916 447.472,264.916 447.5,261.5C 449.626,254.36 449.96,247.027 448.5,239.5 Z"/>
    </g>
    <g>
        <path style="opacity:1" fill="#4d4f49"
              d="M 350.5,276.5 C 351.5,276.833 352.167,277.5 352.5,278.5C 355.791,283.127 359.458,287.46 363.5,291.5C 357.279,287.958 352.945,282.958 350.5,276.5 Z"/>
    </g>
    <g>
        <path style="opacity:1" fill="#d9a994"
              d="M 431.5,289.5 C 427.18,294.333 421.847,297.667 415.5,299.5C 419.314,296.396 423.314,293.396 427.5,290.5C 428.689,289.571 430.022,289.238 431.5,289.5 Z"/>
    </g>
    <g>
        <path style="opacity:1" fill="#d9a993"
              d="M 374.5,297.5 C 378.811,298.649 383.144,299.816 387.5,301C 396.279,301.915 404.946,301.415 413.5,299.5C 411.723,300.6 409.723,301.434 407.5,302C 400.167,302.667 392.833,302.667 385.5,302C 381.381,301.356 377.715,299.856 374.5,297.5 Z"/>
    </g>
    <g>
        <path style="opacity:1" fill="#2d5763"
              d="M 170.5,291.5 C 170.5,292.167 170.167,292.5 169.5,292.5C 168.636,293.688 167.636,294.855 166.5,296C 172.242,297.321 173.409,300.155 170,304.5C 168.167,302.833 166.333,301.167 164.5,299.5C 161.526,300.577 158.526,300.577 155.5,299.5C 155.5,300.5 155.5,301.5 155.5,302.5C 158.654,302.659 161.154,303.993 163,306.5C 164.516,303.949 165.349,304.282 165.5,307.5C 168.167,307.5 170.833,307.5 173.5,307.5C 173.5,311.167 173.5,314.833 173.5,318.5C 171.654,318.222 170.32,318.889 169.5,320.5C 170.959,322.583 172.292,324.75 173.5,327C 172.646,328.022 171.646,328.855 170.5,329.5C 168.841,327.018 166.508,325.518 163.5,325C 163.833,324.667 164.167,324.333 164.5,324C 161.5,321 158.5,318 155.5,315C 151.937,313.404 148.271,313.237 144.5,314.5C 144.5,315.833 144.5,317.167 144.5,318.5C 144.167,318.5 143.833,318.5 143.5,318.5C 141.801,318.34 140.134,318.506 138.5,319C 131.484,322.567 124.484,325.734 117.5,328.5C 115.302,329.165 112.969,329.832 110.5,330.5C 115.522,342.564 122.522,353.231 131.5,362.5C 129.738,362.643 128.071,362.309 126.5,361.5C 125.232,363.304 124.565,365.304 124.5,367.5C 123.5,367.5 122.5,367.5 121.5,367.5C 124.521,372.767 123.688,377.433 119,381.5C 118.138,379.913 117.471,378.246 117,376.5C 116.667,377.5 116.333,378.5 116,379.5C 115.385,377.884 114.385,376.551 113,375.5C 111.186,376.851 111.519,377.851 114,378.5C 114.667,379.167 114.667,379.833 114,380.5C 112.556,378.845 110.722,378.178 108.5,378.5C 95.5764,364 86.243,347.333 80.5,328.5C 56.469,318.636 39.6357,301.636 30,277.5C 27.9975,271.654 26.8308,265.654 26.5,259.5C 28.1644,258.051 28.9977,256.051 29,253.5C 29.1689,246.476 29.6689,239.476 30.5,232.5C 31.4742,234.743 31.8076,237.076 31.5,239.5C 37.1888,238.059 40.5222,240.059 41.5,245.5C 46.7538,246.231 48.9205,243.898 48,238.5C 48.6667,239.167 49.3333,239.833 50,240.5C 50.7636,246.04 50.5969,251.54 49.5,257C 49.6301,258.059 50.1301,258.892 51,259.5C 51.21,257.942 51.71,256.609 52.5,255.5C 55.0531,274.047 64.3864,288.047 80.5,297.5C 84.211,299.683 88.211,301.183 92.5,302C 107.712,304.861 121.379,301.694 133.5,292.5C 134.473,292.013 135.473,291.513 136.5,291C 154.458,273.668 159.458,253.168 151.5,229.5C 151.5,227.5 151.5,225.5 151.5,223.5C 157.689,222.991 159.689,225.324 157.5,230.5C 159.333,230.833 161.167,231.167 163,231.5C 165.302,231.4 167.302,230.733 169,229.5C 169.309,230.766 169.809,231.933 170.5,233C 174.982,233.464 175.982,235.297 173.5,238.5C 175.171,240.51 175.838,242.843 175.5,245.5C 174.022,245.238 172.689,245.571 171.5,246.5C 172.325,247.386 173.325,247.719 174.5,247.5C 174.5,250.167 174.5,252.833 174.5,255.5C 172.167,255.5 169.833,255.5 167.5,255.5C 167.169,258.992 167.169,262.326 167.5,265.5C 167.278,267.055 166.611,268.389 165.5,269.5C 167.402,271.063 168.402,273.063 168.5,275.5C 166.425,278.075 165.091,281.075 164.5,284.5C 163.624,285.251 162.624,285.751 161.5,286C 164.835,287.576 167.835,289.409 170.5,291.5 Z"/>
    </g>
    <g>
        <path style="opacity:1" fill="#345a63"
              d="M 169.5,292.5 C 180.812,305.812 193.146,318.146 206.5,329.5C 210.549,330.157 211.382,332.157 209,335.5C 207.54,332.79 205.54,332.124 203,333.5C 202.25,332.874 201.416,332.374 200.5,332C 201.214,330.657 200.88,329.324 199.5,328C 196.518,327.502 193.518,327.335 190.5,327.5C 190.674,322.979 190.007,322.645 188.5,326.5C 189.407,329.421 189.74,332.421 189.5,335.5C 187.061,336.053 184.727,336.053 182.5,335.5C 181.28,338.858 181.947,341.858 184.5,344.5C 185.689,345.429 187.022,345.762 188.5,345.5C 188.286,347.144 188.62,348.644 189.5,350C 188.271,352.738 186.938,355.405 185.5,358C 187.335,361.918 189.835,362.418 193,359.5C 195.038,361.072 197.371,362.072 200,362.5C 202.096,361.285 201.929,360.451 199.5,360C 201.562,359.436 203.395,359.936 205,361.5C 206.565,360.048 207.898,358.381 209,356.5C 210.016,357.634 210.683,357.301 211,355.5C 212.113,356.711 213.28,356.711 214.5,355.5C 216.081,352.107 218.747,350.773 222.5,351.5C 203.687,367.052 197.687,386.718 204.5,410.5C 203.778,410.918 203.278,411.584 203,412.5C 201.257,409.043 200.257,405.377 200,401.5C 199.333,402.833 198.667,402.833 198,401.5C 197.667,402.167 197.333,402.833 197,403.5C 195.833,402.333 194.667,401.167 193.5,400C 195.764,399.764 197.931,399.264 200,398.5C 200.712,392.972 200.546,387.472 199.5,382C 200.599,377.413 201.932,372.913 203.5,368.5C 203.167,367.833 202.833,367.167 202.5,366.5C 200.522,368.436 199.189,370.77 198.5,373.5C 196.709,374.924 194.875,376.258 193,377.5C 190.64,375.87 188.807,374.203 187.5,372.5C 188.04,371.252 188.707,370.085 189.5,369C 187.606,367.899 186.939,366.566 187.5,365C 186.551,364.383 185.718,364.549 185,365.5C 184.16,362.536 183.16,362.203 182,364.5C 181.617,363.944 181.117,363.611 180.5,363.5C 181.638,358.918 183.638,354.752 186.5,351C 174.304,339.138 162.47,326.971 151,314.5C 148.948,316.058 146.781,317.392 144.5,318.5C 144.5,317.167 144.5,315.833 144.5,314.5C 148.271,313.237 151.937,313.404 155.5,315C 158.5,318 161.5,321 164.5,324C 164.167,324.333 163.833,324.667 163.5,325C 166.508,325.518 168.841,327.018 170.5,329.5C 171.646,328.855 172.646,328.022 173.5,327C 172.292,324.75 170.959,322.583 169.5,320.5C 170.32,318.889 171.654,318.222 173.5,318.5C 173.5,314.833 173.5,311.167 173.5,307.5C 170.833,307.5 168.167,307.5 165.5,307.5C 165.349,304.282 164.516,303.949 163,306.5C 161.154,303.993 158.654,302.659 155.5,302.5C 155.5,301.5 155.5,300.5 155.5,299.5C 158.526,300.577 161.526,300.577 164.5,299.5C 166.333,301.167 168.167,302.833 170,304.5C 173.409,300.155 172.242,297.321 166.5,296C 167.636,294.855 168.636,293.688 169.5,292.5 Z"/>
    </g>
    <g>
        <path style="opacity:1" fill="#2e5661"
              d="M 329.5,294.5 C 331.322,295.281 331.989,296.448 331.5,298C 328.879,299.595 326.213,301.095 323.5,302.5C 324.025,303.192 324.692,303.692 325.5,304C 321.879,305.823 321.213,308.157 323.5,311C 321.983,314.026 320.65,317.193 319.5,320.5C 321.543,321.579 322.876,323.246 323.5,325.5C 322.311,326.429 320.978,326.762 319.5,326.5C 319.668,323.316 318.334,322.816 315.5,325C 316.357,325.689 317.023,326.522 317.5,327.5C 316.324,330.449 314.991,333.282 313.5,336C 316.332,337.908 315.999,338.741 312.5,338.5C 312.863,340.911 311.863,342.411 309.5,343C 310.833,343.667 310.833,344.333 309.5,345C 312.167,345.667 312.167,346.333 309.5,347C 310.784,347.684 311.951,347.517 313,346.5C 313.72,348.112 313.554,349.612 312.5,351C 313.793,351.49 315.127,351.657 316.5,351.5C 316.678,354.216 317.178,356.883 318,359.5C 318.333,359.167 318.667,358.833 319,358.5C 320.934,363.581 322.101,368.914 322.5,374.5C 324.291,374.962 325.291,376.129 325.5,378C 326.193,382.81 326.693,387.643 327,392.5C 328.715,395.724 330.715,396.058 333,393.5C 333.5,393.833 334,394.167 334.5,394.5C 332.744,396.191 332.244,398.191 333,400.5C 337.69,397.652 342.357,397.985 347,401.5C 348.067,399.717 349.567,399.217 351.5,400C 349.038,401.85 349.538,403.017 353,403.5C 353.984,401.205 354.817,401.539 355.5,404.5C 355.135,405.902 354.301,406.902 353,407.5C 351.765,406.385 350.598,406.385 349.5,407.5C 347.885,406.846 346.218,406.346 344.5,406C 344.957,405.586 345.291,405.086 345.5,404.5C 344.5,403.5 343.5,402.5 342.5,401.5C 341.304,401.846 341.304,402.346 342.5,403C 339.356,402.905 336.356,403.072 333.5,403.5C 333.64,405.124 332.973,406.29 331.5,407C 332.784,407.684 333.951,407.517 335,406.5C 335.915,407.328 336.581,408.328 337,409.5C 339.399,406.999 341.899,406.999 344.5,409.5C 342.713,410.316 341.046,411.316 339.5,412.5C 336.795,411.871 334.128,411.537 331.5,411.5C 331.167,411.833 330.833,412.167 330.5,412.5C 333.327,415.185 332.827,416.852 329,417.5C 327.893,417.415 326.893,417.081 326,416.5C 325.505,414.527 325.338,412.527 325.5,410.5C 322.478,410.428 320.312,411.762 319,414.5C 318.239,411.947 317.406,409.447 316.5,407C 318.235,406.349 319.902,406.515 321.5,407.5C 322.452,405.955 322.785,404.288 322.5,402.5C 321.448,402.351 320.448,402.517 319.5,403C 320.451,403.718 320.617,404.551 320,405.5C 317.379,404.009 314.545,403.342 311.5,403.5C 311.5,404.833 311.5,406.167 311.5,407.5C 312.5,407.5 313.5,407.5 314.5,407.5C 313.172,411.153 313.172,414.82 314.5,418.5C 314.129,421.538 312.462,423.204 309.5,423.5C 309.663,425.857 309.497,428.19 309,430.5C 308.29,431.973 307.124,432.64 305.5,432.5C 305.719,433.675 305.386,434.675 304.5,435.5C 302.732,432.101 300.898,428.768 299,425.5C 297.989,426.337 296.822,426.67 295.5,426.5C 295.649,427.552 295.483,428.552 295,429.5C 293.719,429.381 292.552,429.881 291.5,431C 295.041,432.071 295.708,433.737 293.5,436C 294.451,436.718 294.617,437.551 294,438.5C 292.667,438.5 291.333,438.5 290,438.5C 289.167,440 288,441.167 286.5,442C 283.776,442.27 281.109,442.77 278.5,443.5C 275.745,441.239 276.078,439.406 279.5,438C 281.441,437.257 283.274,437.424 285,438.5C 286.728,436.806 286.228,435.639 283.5,435C 285.5,433.333 287.5,431.667 289.5,430C 288.944,429.617 288.611,429.117 288.5,428.5C 306.093,406.511 306.926,383.844 291,360.5C 275.382,343.965 256.548,338.798 234.5,345C 230.345,346.91 226.345,349.077 222.5,351.5C 218.747,350.773 216.081,352.107 214.5,355.5C 213.28,356.711 212.113,356.711 211,355.5C 210.683,357.301 210.016,357.634 209,356.5C 207.898,358.381 206.565,360.048 205,361.5C 203.395,359.936 201.562,359.436 199.5,360C 201.929,360.451 202.096,361.285 200,362.5C 197.371,362.072 195.038,361.072 193,359.5C 189.835,362.418 187.335,361.918 185.5,358C 186.938,355.405 188.271,352.738 189.5,350C 188.62,348.644 188.286,347.144 188.5,345.5C 187.022,345.762 185.689,345.429 184.5,344.5C 181.947,341.858 181.28,338.858 182.5,335.5C 184.727,336.053 187.061,336.053 189.5,335.5C 189.74,332.421 189.407,329.421 188.5,326.5C 190.007,322.645 190.674,322.979 190.5,327.5C 193.518,327.335 196.518,327.502 199.5,328C 200.88,329.324 201.214,330.657 200.5,332C 201.416,332.374 202.25,332.874 203,333.5C 205.54,332.124 207.54,332.79 209,335.5C 211.382,332.157 210.549,330.157 206.5,329.5C 232.327,310.808 259.66,308.641 288.5,323C 291,324.833 293.5,326.667 296,328.5C 306.672,316.661 317.839,305.328 329.5,294.5 Z"/>
    </g>
    <g>
        <path style="opacity:0.997" fill="#4b686b"
              d="M 143.5,318.5 C 135.765,324.026 127.098,327.359 117.5,328.5C 124.484,325.734 131.484,322.567 138.5,319C 140.134,318.506 141.801,318.34 143.5,318.5 Z"/>
    </g>
    <g>
        <path style="opacity:1" fill="#2c5461"
              d="M 387.5,384.5 C 386.065,383.21 385.065,381.544 384.5,379.5C 383.614,380.325 383.281,381.325 383.5,382.5C 380.728,382.22 378.228,382.887 376,384.5C 374.989,383.663 373.822,383.33 372.5,383.5C 372.5,384.5 372.5,385.5 372.5,386.5C 376.527,386.26 377.861,387.926 376.5,391.5C 374.833,392.167 373.167,392.833 371.5,393.5C 370.059,386.443 365.392,382.943 357.5,383C 359.604,382.511 359.938,381.345 358.5,379.5C 358.637,377.893 359.304,376.559 360.5,375.5C 360.109,376.891 360.942,377.891 363,378.5C 364.133,376.789 365.633,376.289 367.5,377C 366.833,377.333 366.167,377.667 365.5,378C 366.793,378.49 368.127,378.657 369.5,378.5C 369.33,377.178 369.663,376.011 370.5,375C 369.833,374.667 369.167,374.333 368.5,374C 370.087,373.138 371.754,372.471 373.5,372C 372.062,371.781 370.729,371.281 369.5,370.5C 371.401,369.769 373.401,369.769 375.5,370.5C 374.703,368.104 374.37,365.771 374.5,363.5C 374.722,361.945 375.389,360.611 376.5,359.5C 376.154,358.304 375.654,358.304 375,359.5C 374.536,358.906 374.369,358.239 374.5,357.5C 380.72,349.731 385.386,341.064 388.5,331.5C 390.141,328.954 390.475,326.287 389.5,323.5C 391.199,323.34 392.866,323.506 394.5,324C 390.774,325.043 391.107,325.543 395.5,325.5C 395.594,330.082 397.261,333.916 400.5,337C 398.875,339.137 399.208,340.803 401.5,342C 399.125,343.538 397.792,345.705 397.5,348.5C 398.382,353.243 400.049,357.577 402.5,361.5C 399.245,361.014 396.578,362.014 394.5,364.5C 392.38,363.128 391.38,363.795 391.5,366.5C 387.5,365.833 385.833,367.5 386.5,371.5C 387.978,371.238 389.311,371.571 390.5,372.5C 388.363,373.738 387.029,375.571 386.5,378C 387.423,380.041 387.756,382.208 387.5,384.5 Z"/>
    </g>
    <g>
        <path style="opacity:1" fill="#c2e0d7"
              d="M 288.5,428.5 C 266.875,446.909 244.209,448.243 220.5,432.5C 213.297,426.615 207.964,419.282 204.5,410.5C 197.687,386.718 203.687,367.052 222.5,351.5C 226.345,349.077 230.345,346.91 234.5,345C 256.548,338.798 275.382,343.965 291,360.5C 306.926,383.844 306.093,406.511 288.5,428.5 Z"/>
    </g>
    <g>
        <path style="opacity:1" fill="#315863"
              d="M 316.5,351.5 C 324.464,363.219 328.464,376.052 328.5,390C 337.39,387.39 345.723,383.39 353.5,378C 361.031,371.635 368.031,364.801 374.5,357.5C 374.369,358.239 374.536,358.906 375,359.5C 375.654,358.304 376.154,358.304 376.5,359.5C 375.389,360.611 374.722,361.945 374.5,363.5C 374.37,365.771 374.703,368.104 375.5,370.5C 373.401,369.769 371.401,369.769 369.5,370.5C 370.729,371.281 372.062,371.781 373.5,372C 371.754,372.471 370.087,373.138 368.5,374C 369.167,374.333 369.833,374.667 370.5,375C 369.663,376.011 369.33,377.178 369.5,378.5C 368.127,378.657 366.793,378.49 365.5,378C 366.167,377.667 366.833,377.333 367.5,377C 365.633,376.289 364.133,376.789 363,378.5C 360.942,377.891 360.109,376.891 360.5,375.5C 359.304,376.559 358.637,377.893 358.5,379.5C 359.938,381.345 359.604,382.511 357.5,383C 365.392,382.943 370.059,386.443 371.5,393.5C 373.167,392.833 374.833,392.167 376.5,391.5C 377.861,387.926 376.527,386.26 372.5,386.5C 372.5,385.5 372.5,384.5 372.5,383.5C 373.822,383.33 374.989,383.663 376,384.5C 378.228,382.887 380.728,382.22 383.5,382.5C 383.281,381.325 383.614,380.325 384.5,379.5C 385.065,381.544 386.065,383.21 387.5,384.5C 370.294,403.113 349.294,415.613 324.5,422C 305.933,460.119 275.6,475.785 233.5,469C 230.198,468.339 227.198,467.172 224.5,465.5C 233.486,466.209 242.153,467.209 250.5,468.5C 255.455,466.904 260.455,465.404 265.5,464C 263.231,463.242 261.064,463.409 259,464.5C 257.933,463.809 256.766,463.309 255.5,463C 257.473,462.505 259.473,462.338 261.5,462.5C 261.827,457.456 261.494,452.456 260.5,447.5C 258.453,445.264 256.12,444.931 253.5,446.5C 246.733,444.712 240.067,443.546 233.5,443C 228.78,439.996 224.113,437.496 219.5,435.5C 218.335,434.14 218.668,433.14 220.5,432.5C 244.209,448.243 266.875,446.909 288.5,428.5C 288.611,429.117 288.944,429.617 289.5,430C 287.5,431.667 285.5,433.333 283.5,435C 286.228,435.639 286.728,436.806 285,438.5C 283.274,437.424 281.441,437.257 279.5,438C 276.078,439.406 275.745,441.239 278.5,443.5C 281.109,442.77 283.776,442.27 286.5,442C 288,441.167 289.167,440 290,438.5C 291.333,438.5 292.667,438.5 294,438.5C 294.617,437.551 294.451,436.718 293.5,436C 295.708,433.737 295.041,432.071 291.5,431C 292.552,429.881 293.719,429.381 295,429.5C 295.483,428.552 295.649,427.552 295.5,426.5C 296.822,426.67 297.989,426.337 299,425.5C 300.898,428.768 302.732,432.101 304.5,435.5C 305.386,434.675 305.719,433.675 305.5,432.5C 307.124,432.64 308.29,431.973 309,430.5C 309.497,428.19 309.663,425.857 309.5,423.5C 312.462,423.204 314.129,421.538 314.5,418.5C 313.172,414.82 313.172,411.153 314.5,407.5C 313.5,407.5 312.5,407.5 311.5,407.5C 311.5,406.167 311.5,404.833 311.5,403.5C 314.545,403.342 317.379,404.009 320,405.5C 320.617,404.551 320.451,403.718 319.5,403C 320.448,402.517 321.448,402.351 322.5,402.5C 322.785,404.288 322.452,405.955 321.5,407.5C 319.902,406.515 318.235,406.349 316.5,407C 317.406,409.447 318.239,411.947 319,414.5C 320.312,411.762 322.478,410.428 325.5,410.5C 325.338,412.527 325.505,414.527 326,416.5C 326.893,417.081 327.893,417.415 329,417.5C 332.827,416.852 333.327,415.185 330.5,412.5C 330.833,412.167 331.167,411.833 331.5,411.5C 334.128,411.537 336.795,411.871 339.5,412.5C 341.046,411.316 342.713,410.316 344.5,409.5C 341.899,406.999 339.399,406.999 337,409.5C 336.581,408.328 335.915,407.328 335,406.5C 333.951,407.517 332.784,407.684 331.5,407C 332.973,406.29 333.64,405.124 333.5,403.5C 336.356,403.072 339.356,402.905 342.5,403C 341.304,402.346 341.304,401.846 342.5,401.5C 343.5,402.5 344.5,403.5 345.5,404.5C 345.291,405.086 344.957,405.586 344.5,406C 346.218,406.346 347.885,406.846 349.5,407.5C 350.598,406.385 351.765,406.385 353,407.5C 354.301,406.902 355.135,405.902 355.5,404.5C 354.817,401.539 353.984,401.205 353,403.5C 349.538,403.017 349.038,401.85 351.5,400C 349.567,399.217 348.067,399.717 347,401.5C 342.357,397.985 337.69,397.652 333,400.5C 332.244,398.191 332.744,396.191 334.5,394.5C 334,394.167 333.5,393.833 333,393.5C 330.715,396.058 328.715,395.724 327,392.5C 326.693,387.643 326.193,382.81 325.5,378C 325.291,376.129 324.291,374.962 322.5,374.5C 322.101,368.914 320.934,363.581 319,358.5C 318.667,358.833 318.333,359.167 318,359.5C 317.178,356.883 316.678,354.216 316.5,351.5 Z"/>
    </g>
    <g>
        <path style="opacity:1" fill="#2d5967"
              d="M 131.5,362.5 C 143.614,374.751 157.781,384.084 174,390.5C 174.83,385.857 175.497,381.19 176,376.5C 176.751,371.789 178.251,367.456 180.5,363.5C 181.117,363.611 181.617,363.944 182,364.5C 183.16,362.203 184.16,362.536 185,365.5C 185.718,364.549 186.551,364.383 187.5,365C 186.939,366.566 187.606,367.899 189.5,369C 188.707,370.085 188.04,371.252 187.5,372.5C 188.807,374.203 190.64,375.87 193,377.5C 194.875,376.258 196.709,374.924 198.5,373.5C 199.189,370.77 200.522,368.436 202.5,366.5C 202.833,367.167 203.167,367.833 203.5,368.5C 201.932,372.913 200.599,377.413 199.5,382C 200.546,387.472 200.712,392.972 200,398.5C 197.931,399.264 195.764,399.764 193.5,400C 194.667,401.167 195.833,402.333 197,403.5C 197.333,402.833 197.667,402.167 198,401.5C 198.667,402.833 199.333,402.833 200,401.5C 200.257,405.377 201.257,409.043 203,412.5C 203.278,411.584 203.778,410.918 204.5,410.5C 207.964,419.282 213.297,426.615 220.5,432.5C 218.668,433.14 218.335,434.14 219.5,435.5C 224.113,437.496 228.78,439.996 233.5,443C 240.067,443.546 246.733,444.712 253.5,446.5C 256.12,444.931 258.453,445.264 260.5,447.5C 261.494,452.456 261.827,457.456 261.5,462.5C 259.473,462.338 257.473,462.505 255.5,463C 256.766,463.309 257.933,463.809 259,464.5C 261.064,463.409 263.231,463.242 265.5,464C 260.455,465.404 255.455,466.904 250.5,468.5C 242.153,467.209 233.486,466.209 224.5,465.5C 209.253,460.242 197.253,450.909 188.5,437.5C 188.808,435.076 188.474,432.743 187.5,430.5C 186.456,426.621 184.123,423.788 180.5,422C 180.833,421.667 181.167,421.333 181.5,421C 180,419.5 178.5,418 177,416.5C 172.396,417.695 168.23,416.695 164.5,413.5C 162.837,414.875 161.503,414.542 160.5,412.5C 159.264,413.246 157.93,413.579 156.5,413.5C 137.578,405.719 121.578,394.052 108.5,378.5C 110.722,378.178 112.556,378.845 114,380.5C 114.667,379.833 114.667,379.167 114,378.5C 111.519,377.851 111.186,376.851 113,375.5C 114.385,376.551 115.385,377.884 116,379.5C 116.333,378.5 116.667,377.5 117,376.5C 117.471,378.246 118.138,379.913 119,381.5C 123.688,377.433 124.521,372.767 121.5,367.5C 122.5,367.5 123.5,367.5 124.5,367.5C 124.565,365.304 125.232,363.304 126.5,361.5C 128.071,362.309 129.738,362.643 131.5,362.5 Z"/>
    </g>
    <g>
        <path style="opacity:1" fill="#44626b"
              d="M 188.5,437.5 C 184.564,432.48 181.231,426.98 178.5,421C 170.76,419.365 163.427,416.865 156.5,413.5C 157.93,413.579 159.264,413.246 160.5,412.5C 161.503,414.542 162.837,414.875 164.5,413.5C 168.23,416.695 172.396,417.695 177,416.5C 178.5,418 180,419.5 181.5,421C 181.167,421.333 180.833,421.667 180.5,422C 184.123,423.788 186.456,426.621 187.5,430.5C 188.474,432.743 188.808,435.076 188.5,437.5 Z"/>
    </g>
</svg>
