<?xml version="1.0" standalone="no"?>
<!DOCTYPE svg PUBLIC "-//W3C//DTD SVG 20010904//EN"
 "http://www.w3.org/TR/2001/REC-SVG-20010904/DTD/svg10.dtd">
<svg version="1.0" xmlns="http://www.w3.org/2000/svg"
 width="500.000000pt" height="500.000000pt" viewBox="0 0 500.000000 500.000000"
 preserveAspectRatio="xMidYMid meet">

<g transform="translate(0.000000,500.000000) scale(0.100000,-0.100000)"
fill="#000000" stroke="none">
<path d="M2425 4679 c-264 -39 -496 -214 -612 -464 -15 -34 -24 -40 -58 -46
-165 -28 -391 -153 -569 -313 -142 -127 -279 -337 -342 -523 -18 -55 -32 -83
-42 -83 -30 0 -159 -71 -228 -125 -93 -75 -155 -151 -214 -267 -71 -138 -94
-239 -87 -393 7 -182 61 -331 172 -475 75 -97 161 -165 305 -238 l73 -37 22
-70 c71 -226 254 -470 475 -634 101 -76 274 -162 390 -194 l85 -24 45 -81
c101 -181 238 -300 435 -376 78 -30 84 -31 245 -30 158 0 169 1 252 31 124 43
190 85 288 183 61 61 99 111 135 174 l51 90 104 36 c212 73 355 165 512 329
137 141 241 311 302 493 l25 73 63 25 c189 77 329 209 422 396 208 423 11 939
-424 1110 -58 22 -71 32 -76 53 -10 47 -56 175 -81 226 -78 155 -235 339 -388
453 -91 68 -269 156 -373 185 l-84 24 -42 77 c-83 153 -199 270 -338 338 -90
44 -158 64 -268 77 -93 12 -91 12 -175 0z m294 -302 c186 -77 311 -261 311
-457 0 -229 -158 -439 -373 -496 -61 -16 -183 -18 -247 -3 -138 32 -273 141
-335 270 -132 281 -6 591 284 696 59 21 79 23 181 20 96 -3 125 -8 179 -30z
m-959 -534 c0 -72 26 -165 71 -263 23 -49 40 -93 38 -98 -2 -6 -82 -90 -177
-187 l-173 -176 -94 54 c-87 50 -188 87 -277 102 -21 3 -38 10 -38 16 0 5 14
38 31 72 104 206 279 377 494 483 117 57 125 57 125 -3z m1647 1 c162 -79 292
-195 394 -348 60 -91 106 -194 92 -206 -4 -4 -44 -14 -88 -23 -84 -18 -196
-66 -268 -116 l-44 -30 -172 173 -172 172 41 70 c48 82 89 205 97 291 3 35 10
63 16 63 5 0 52 -21 104 -46z m-1271 -604 c116 -68 207 -92 365 -98 104 -3
150 0 200 12 58 15 198 77 242 108 16 12 36 -5 187 -162 93 -96 169 -180 170
-187 0 -7 -15 -43 -34 -80 -60 -119 -71 -171 -71 -333 0 -170 16 -248 76 -366
l38 -77 -171 -177 -172 -177 -60 38 c-76 47 -185 84 -298 100 -154 22 -331
-17 -475 -105 l-73 -44 -187 182 -187 182 21 30 c69 98 102 205 110 364 8 156
-11 253 -74 377 l-46 93 78 82 c114 121 276 278 285 278 4 0 39 -18 76 -40z
m-956 -247 c218 -59 381 -276 380 -507 -1 -208 -143 -412 -340 -487 -161 -61
-353 -34 -476 67 -144 117 -214 254 -214 420 0 157 44 267 149 374 135 138
312 185 501 133z m2890 17 c101 -16 183 -62 271 -149 142 -143 188 -305 139
-495 -25 -99 -57 -157 -130 -238 -155 -172 -423 -213 -629 -95 -131 74 -235
215 -260 351 -35 190 15 351 148 479 129 125 285 174 461 147z m-2200 -1524
c0 -7 -16 -46 -35 -85 -41 -83 -63 -160 -72 -253 -3 -38 -8 -68 -10 -68 -13 0
-177 80 -223 108 -91 57 -208 162 -276 247 -67 83 -159 248 -149 265 3 6 19
10 34 10 58 0 207 51 291 100 l85 50 178 -180 c97 -99 177 -186 177 -194z
m1700 323 c82 -49 192 -87 272 -96 32 -3 60 -9 63 -13 7 -11 -59 -152 -100
-214 -91 -137 -247 -277 -393 -354 -55 -29 -104 -52 -110 -52 -6 0 -14 21 -17
48 -17 128 -57 246 -116 345 l-23 38 169 169 c94 94 174 170 178 170 5 0 39
-18 77 -41z m-915 -254 c88 -23 153 -62 225 -135 159 -161 194 -383 92 -590
-33 -67 -139 -176 -208 -212 -298 -159 -685 30 -735 360 -19 129 12 277 81
377 39 57 130 138 182 164 105 50 251 65 363 36z"/>
</g>
</svg>
